<svg id="Layer_1" data-name="Layer 1" xmlns="http://www.w3.org/2000/svg" viewBox="0 0 445.19 438.31"><defs><style>.cls-1{fill:#ddd;}</style></defs><title>admin-icon</title><g id="O5Jxek.tif"><path class="cls-1" d="M502,156.81l15,.1,4.78.66,12.09,2,5.14,1.28,9.84,3.65,2.07.89,9.8,5.72,2.73,2.1,8.4,8.09a4.83,4.83,0,0,0,2.11,2.74l5.09,7.94,1.62,3.09,4.22,11a5.92,5.92,0,0,0,1.14,4l2.07,13,.36,5L588.8,242c-.66,1.69-.29,3.36.08,5a78,78,0,0,0-.09,15c-.67,1.69-.29,3.36.08,5,.12,5.29-2.17,10.85,1.81,15.69l2.12,3.82,2.45,8.48.73,5c-.64,8.43-3,16.22-8.49,22.86l-2.62,2.63a4.33,4.33,0,0,0-2.46,2.55l-2.31,8c-3.55,8.88-7.12,17.75-11.79,26.13l-10.74,15.7c-4.65,4.74-5.52,13.87-1.91,19.86l1,1.39a25,25,0,0,0,7.24,7.95,10.59,10.59,0,0,0,3.86,3.41c4.78,4.41,4.78,4.41.22,9q-62.43,62.43-124.77,125c-6.07,6.13-11.52,12.15-21.16,10.39a10.79,10.79,0,0,0-6.13-.07,64.38,64.38,0,0,0-14.85.1,7.69,7.69,0,0,0-5.14-.09,63.64,63.64,0,0,0-14.86.09,7.69,7.69,0,0,0-5.14-.09,63.64,63.64,0,0,0-14.86.09,7.69,7.69,0,0,0-5.14-.09,71.46,71.46,0,0,0-15.86.09,5.27,5.27,0,0,0-4.14-.09l-11.76-.81-4.2-2.67a23.55,23.55,0,0,1-4.78-8.33l-.28-3.91.05-15-.05-5,.05-15-.05-5c.66-5.69-.62-11.65,2.37-17l4.68-4.66c8.76-3.59,17.69-6.8,26-11.33a31.41,31.41,0,0,0,9-4,246.77,246.77,0,0,0,30-14.88A52.5,52.5,0,0,0,398,441.44c16.84-8.84,33-18.81,47.76-30.81,4.54-3.68,8.84-7.65,12-12.6,3.51-5.43,3-15.1-.79-18.87l-1.9-2.28-5.89-8a5.38,5.38,0,0,0-2-3l-6-10.57a2.67,2.67,0,0,0-1.13-2.38l-4.18-10-1.58-4.11c-1.37-4-1.57-8.49-4.25-12.07L427,324l-5.17-7L420.17,314c-1.08-4.26-2.38-8.48-2.47-12.93l.15-5c1.33-5.26,2.92-10.39,6.21-14.84,1.62-2.2.78-4.73.75-7.14l0-5,0-15,0-5,0-15,0-5,2.25-17a20.47,20.47,0,0,0,1.88-7c3-6.82,5.86-13.67,10.32-19.75,8.37-11.38,19.77-18.45,32.69-23.43l7.78-2.09L497,156.9Z" transform="translate(-314.91 -156.81)"/><path class="cls-1" d="M465,588a46.63,46.63,0,0,0-4.13-10,7.72,7.72,0,0,0-1.83-4c-2.29-4.16-.69-6.85,2.53-10.06q73.79-73.39,147.34-147c2.66-2.65,3.49-4.9,1.34-8-.2-1.36-.06-2.82-1.14-3.92l-1.79-13L607,387l2.07-17a20,20,0,0,0,1.91-7c5.85-14.79,14.5-27.49,27.45-37,6.33-4.67,13.41-7.86,20.52-11l7-2,17-2.08,5,.12,13,1.88,2.06.56L716,318l3,1.72,7.66,4.44,4.2,3.08,8,7.17,2.2,2.48,6.69,8.67,1,1.54,5.9,11.66.83,2.41,3.16,11,.79,5L760.1,391l-.25,5a163.65,163.65,0,0,1-5.17,20L749.93,426a89.88,89.88,0,0,1-28,27.88l-9.85,4.61A110.88,110.88,0,0,1,693,463.29l-6,.64-14-.76-5-1-11-3L654,458c-2.38-2.15-3.21.55-4.26,1.58-8.4,8.25-17,16.33-24.92,25-5.77,6.34-11.66,11-20.8,8.78-.29-.07-.64.13-1,.21a10.65,10.65,0,0,0-5.09-.27L583,493.15c-10.09-.88-10.09-.88-11.16,8.95-.11,1-.14,2-.21,2.95L569.23,521l-.94,7.06L566,545c-.34,2.15-1.76,3-3.77,3.26-6.11,1.17-12.3,1.92-18.26,3.8a13.16,13.16,0,0,0-6,1c-15.34,1.71-15.34,1.71-19.21,16.53-.29,1.11-.48,2.25-.71,3.37l-1.87,7c-.34.92-.73,1.83-1,2.77-2.94,10.47-2.93,10.47-13.18,11.37l-5,.06a93.9,93.9,0,0,0-16,.83l-5,0c-3.11-.87-7.46,2-9.16-3.09ZM703,348.09c-8.53,1.29-13.93,6.65-15,14.91a7.1,7.1,0,0,0,0,5,12.72,12.72,0,0,0,4.79,10.09,6.9,6.9,0,0,0,4.11,3.1c7.63,4.17,16.27,2.76,21.93-3.58a17.23,17.23,0,0,0,1.23-21.79l-.6-.95a14.58,14.58,0,0,0-11.44-6.7A10.28,10.28,0,0,0,703,348.09Z" transform="translate(-314.91 -156.81)"/><path class="cls-1" d="M698.35,517l0,15.95,0,5.05c-1,11.92-4,15-16.29,16.75a10.82,10.82,0,0,0-6.12-.07,56.11,56.11,0,0,0-13.88.07,10.82,10.82,0,0,0-6.12-.07,56.11,56.11,0,0,0-13.88.07,10.82,10.82,0,0,0-6.12-.07,56.11,56.11,0,0,0-13.88.07,10.82,10.82,0,0,0-6.12-.07,63,63,0,0,0-14.87.1,7.69,7.69,0,0,0-5.13-.09c-7.1-.24-2.51-5.16-3.19-8l.91-6.77,2.28-17c.31-1.72,1.15-2.89,3.06-2.94a71.47,71.47,0,0,0,14,.48c2,.39,4,.66,6-.24,6.5-.37,11.69-3.47,16.17-7.92,6.62-6.56,13.35-13,19.69-19.83,2.94-3.17,5.79-5.17,10.17-3.71l5,.95c4.31.46,8.58,1.4,13,.86a12.86,12.86,0,0,0,5.9-.16,62.56,62.56,0,0,0,6.33-.51c2.59-.46,3.06.95,3.09,3l0,4,0,16Z" transform="translate(-314.91 -156.81)"/></g></svg>