<svg id="fundbot-icon-white" xmlns="http://www.w3.org/2000/svg" viewBox="0 0 384.34 466.2"><defs><style>.cls-1{fill:#fff;}.cls-2{fill:#5cbfea;}.cls-3{fill:#60c6ff;}</style></defs><title>fundbot-icon-white</title><g id="Layer_1_copy_2-2" data-name="Layer 1 copy 2"><g id="Layer_1_copy" data-name="Layer 1 copy"><path id="bottom-left" class="cls-1" d="M625.31,572c1.67-.07,3.14-.19,4.61-.19,36.31,0,72.61.09,108.92-.13,5,0,5,1.77,3.84,5.43-3.19,9.75-9.44,17.07-17.8,22.74-23.11,15.7-59.25,15.39-82-.84C633.63,592.46,627,584,625.31,572Z" transform="translate(-492.27 -145.25)"/><path id="eye-right-dark" class="cls-1" d="M768.17,301.17a19.8,19.8,0,1,1-39.6-.09,20,20,0,0,1,19.64-19.9A19.81,19.81,0,0,1,768.17,301.17Z" transform="translate(-492.27 -145.25)"/><path id="eye-left" class="cls-1" d="M640.17,301.22a19.67,19.67,0,1,1-19.81-20.06A19.62,19.62,0,0,1,640.17,301.22Z" transform="translate(-492.27 -145.25)"/></g><path id="bottom-right-dark" class="cls-1" d="M738.85,571.71q-27.92.17-55.85.14v39.57c15,.28,30.14-3.55,41.89-11.53,8.36-5.68,14.61-13,17.8-22.74C743.88,573.48,743.83,571.68,738.85,571.71Z" transform="translate(-492.27 -145.25)"/><g id="antenna_copy" data-name="antenna copy"><g id="right_copy" data-name="right copy"><path id="right-antenna-dark" class="cls-1" d="M826.41,179.17a24.44,24.44,0,0,0-7.31-28.37c-.48-.39-1-.75-1.47-1.1L775,203.87q3.29,2.55,6.49,5.23c1.65,1.37,2.7,1.33,4-.45,2.67-3.62,5.73-7,8.24-10.67,2-3,4.1-3.82,7.79-3.39C812.28,195.84,822.24,189.38,826.41,179.17Z" transform="translate(-492.27 -145.25)"/><path id="antenna-full" class="cls-1" d="M775.28,189.73a36.27,36.27,0,0,1,2.8-3.51c2.74-2.71,3.15-5.4,1.83-9.27-3.48-10.26.84-21.49,9.89-27.54a24.69,24.69,0,0,1,36.61,29.76c-4.18,10.21-14.13,16.67-24.85,15.42-3.69-.43-5.79.43-7.79,3.39-2.51,3.71-5.57,7.05-8.24,10.67-1.31,1.78-2.36,1.82-4,.45-3.45-2.88-7-5.69-10.61-8.33-2.12-1.53-2.37-2.82-.59-4.78S773.64,191.83,775.28,189.73Z" transform="translate(-492.27 -145.25)"/></g><g id="left_copy" data-name="left copy"><path id="right-antenna-dark-2" data-name="right-antenna-dark" class="cls-2" d="M541,179.17a24.44,24.44,0,0,1,7.31-28.37c.48-.39,1-.75,1.47-1.1l42.6,54.17q-3.29,2.55-6.49,5.23c-1.65,1.37-2.7,1.33-4-.45-2.67-3.62-5.73-7-8.24-10.67-2-3-4.1-3.82-7.79-3.39C555.11,195.84,545.16,189.38,541,179.17Z" transform="translate(-492.27 -145.25)"/><path id="antenna-full-2" data-name="antenna-full" class="cls-3" d="M592.11,189.73a36.27,36.27,0,0,0-2.8-3.51c-2.74-2.71-3.15-5.4-1.83-9.27,3.48-10.26-.84-21.49-9.89-27.54A24.69,24.69,0,0,0,541,179.17c4.18,10.21,14.13,16.67,24.85,15.42,3.69-.43,5.79.43,7.79,3.39,2.51,3.71,5.57,7.05,8.24,10.67,1.31,1.78,2.36,1.82,4,.45,3.45-2.88,7-5.69,10.61-8.33,2.12-1.53,2.37-2.82.59-4.78S593.75,191.83,592.11,189.73Z" transform="translate(-492.27 -145.25)"/></g></g></g><g id="full"><g id="Layer_1" data-name="Layer 1"><g id="antenna"><g id="right"><path id="antenna-full-3" data-name="antenna-full" class="cls-1" d="M775.28,189.73a36.27,36.27,0,0,1,2.8-3.51c2.74-2.71,3.15-5.4,1.83-9.27-3.48-10.26.84-21.49,9.89-27.54a24.69,24.69,0,0,1,36.61,29.76c-4.18,10.21-14.13,16.67-24.85,15.42-3.69-.43-5.79.43-7.79,3.39-2.51,3.71-5.57,7.05-8.24,10.67-1.31,1.78-2.36,1.82-4,.45-3.45-2.88-7-5.69-10.61-8.33-2.12-1.53-2.37-2.82-.59-4.78S773.64,191.83,775.28,189.73Z" transform="translate(-492.27 -145.25)"/></g><g id="left"><path id="antenna-full-4" data-name="antenna-full" class="cls-1" d="M592.11,189.73a36.27,36.27,0,0,0-2.8-3.51c-2.74-2.71-3.15-5.4-1.83-9.27,3.48-10.26-.84-21.49-9.89-27.54A24.69,24.69,0,0,0,541,179.17c4.18,10.21,14.13,16.67,24.85,15.42,3.69-.43,5.79.43,7.79,3.39,2.51,3.71,5.57,7.05,8.24,10.67,1.31,1.78,2.36,1.82,4,.45,3.45-2.88,7-5.69,10.61-8.33,2.12-1.53,2.37-2.82.59-4.78S593.75,191.83,592.11,189.73Z" transform="translate(-492.27 -145.25)"/></g></g></g></g><path class="cls-1" d="M704.41,474c-6-4.11-13.38-6.4-21-8.42l-.43-.11v31a56,56,0,0,0,17.16-3C711,489.71,713.1,480,704.41,474Z" transform="translate(-492.27 -145.25)"/><path class="cls-1" d="M865.44,516.93c-3.12-1.9-3.67-4-3.66-7.19q.14-49.75.06-99.49c0-20.14-11.86-36.78-31-43-3-1-3.76-2.27-3.73-5.21.14-14.83,0-29.66.08-44.5a126.48,126.48,0,0,0-3.66-29.66C808.28,223.37,749.94,177.44,683,177.94v44A119.89,119.89,0,0,1,740.55,235c35.17,17.78,46.73,52.76,41.18,85.4-3,17.5-14.74,27.28-34.11,29.55-17.27,2-34.61.78-51.92.76H684.21V351H683v12.63h20.65c0,.58.12,1.16.13,1.74,0,5.37,0,10.74,0,16.11,0,1.06.27,1.56,2,1.6,3,.07,6,.29,8.93.52a144.72,144.72,0,0,1,32.58,6c1.4.44,2,.81,1.48,2.06q-4.17,10.88-8,21.82c-.51,1.46-1.13,1.56-2.88,1a134.3,134.3,0,0,0-41.57-6.79,75,75,0,0,0-13.31.94v23.33c5.45,2.06,11.17,3.72,16.94,5.3,11.42,3.12,23,6,33.34,10.76,11.17,5.19,19.56,11.85,22.85,21.21.72,2.05,1.25,4.13,1.86,6.2v9.11c-1,.4-.62,1.15-.75,1.71q-2.91,12.38-15.65,21.13c-10.36,7.1-23,11-37,12.88-1.76.24-2.4.65-2.38,2,.09,6.93,0,13.86,0,20.8H683v19.41q30.84,0,61.66-.38c46.94-.66,82.5-37.54,82.5-84.39,0-7.17,0-14.33,0-21.5,0-1.72-.11-3.43,2.09-3.9,4.27-.9,7.95-3.24,12.59-5.28,0,21.08-.1,41.56.09,62,0,3.87-1,6.14-4.34,8.37-9.27,6.12-12.7,17.65-9.1,28.24a24.79,24.79,0,0,0,47.14-1.18C878.62,534,874.64,522.55,865.44,516.93Z" transform="translate(-492.27 -145.25)"/><path class="cls-1" d="M865.44,516.93c-3.12-1.9-3.67-4-3.66-7.19q.15-49.74.06-99.49c0-20.15-11.86-36.78-31-43-3-1-3.76-2.27-3.74-5.21.14-14.83,0-29.66.08-44.5a126.56,126.56,0,0,0-3.65-29.66c-16.92-71.55-86.92-120.27-162.85-108-64.56,10.4-116.77,68.31-118.79,133.49-.5,16.15-.31,32.32-.41,48.48,0,2.35.16,4.21-3,5.33-21,7.57-31.51,22.78-31.52,45.2q0,48.75.06,97.49c0,3.25-.69,5.3-3.67,7.21a24.25,24.25,0,0,0-9.94,28A24.77,24.77,0,1,0,530,516.45c-2.66-1.58-3.1-3.26-3.09-5.91.08-19.5,0-39,0-58.5v-5.5c3.89,2.47,7.28,4.3,10.94,5.18,2.91.7,3.6,2.1,3.59,4.86,0,9.33-.05,18.66.37,28,1.81,40.73,38,76.67,78.78,77.32q62,1,124,.16c46.94-.66,82.51-37.54,82.51-84.39,0-7.17,0-14.33,0-21.5,0-1.72-.1-3.43,2.09-3.89,4.27-.91,8-3.25,12.59-5.29,0,21.08-.1,41.56.09,62,0,3.87-1,6.14-4.34,8.37-9.27,6.12-12.7,17.66-9.09,28.25a24.79,24.79,0,0,0,47.14-1.18C878.62,534,874.64,522.55,865.44,516.93ZM758,484.5c-1,.4-.62,1.15-.75,1.71q-2.91,12.38-15.65,21.13c-10.36,7.1-23,11-37,12.88-1.76.24-2.4.65-2.38,2,.09,6.93,0,13.86,0,20.8H671.74c0-6.35-.16-12.7,0-19,0-1.58-.65-1.91-2.75-2a189.77,189.77,0,0,1-37.16-5.1c-4.61-1.11-8.9-2.71-13.41-4v-.7a4.56,4.56,0,0,0,.48-.78c2.82-7.66,5.66-15.32,8.39-23,.4-1.13.69-1.42,2.34-.81a145.67,145.67,0,0,0,49.08,9c7.42.08,14.69-.57,21.48-3C711,489.71,713.1,480,704.41,474c-6-4.11-13.38-6.4-21-8.42-11.37-3-23-5.58-33.63-9.88-8.2-3.32-15.6-7.29-21.16-12.77-13.66-13.46-10.79-35.31,10.2-47.5,9.28-5.39,19.91-8.71,31.59-10.46,2.14-.32,2.88-.84,2.84-2.47-.16-6.3,0-12.6,0-18.9h30.41c0,.58.12,1.16.13,1.74,0,5.37,0,10.74,0,16.11,0,1.06.27,1.56,2,1.6,3,.07,6,.29,8.93.52a144.72,144.72,0,0,1,32.58,6c1.4.44,2,.81,1.48,2.06-1,2.69-2,5.39-3,8.08a10,10,0,0,1,7.81,10,10,10,0,0,1-19.19,3.67q-5.13-1.53-10.4-2.68A10,10,0,0,1,704,409.12a9.82,9.82,0,0,1,.12-1.2c-2.58-.16-5.17-.27-7.8-.28a63.89,63.89,0,0,0-17.58,1.91c-10.72,3-14.26,11.88-6,17.4a36.08,36.08,0,0,0,5.47,3,155.24,155.24,0,0,0,21.73,7.25c11.42,3.12,23,6,33.34,10.76,11.17,5.19,19.56,11.85,22.85,21.21.72,2.05,1.25,4.13,1.86,6.2Zm15.13-65a10,10,0,1,1-.21-20,10,10,0,0,1,.21,20Zm8.59-99.07c-3,17.5-14.74,27.27-34.11,29.55-17.27,2-34.6.78-51.91.76-3.83,0-7.66,0-11.49,0V351q-25,0-50,0a83.81,83.81,0,0,1-19.79-2.33c-18.54-4.46-27.89-17.12-28.45-38.16-1.09-41.33,20.44-71.29,60.34-82.79,32.18-9.27,63.94-8,94.21,7.29C775.72,252.8,787.28,287.78,781.72,320.42Z" transform="translate(-492.27 -145.25)"/></svg>