<svg id="Layer_1" data-name="Layer 1" xmlns="http://www.w3.org/2000/svg" viewBox="0 0 512.14 320.14"><defs><style>.cls-1{fill:#f2f2f2;}.cls-2{fill:#f79f1a;}.cls-3{fill:#ea001b;}.cls-4{fill:#ff5f01;}</style></defs><title>master-card-icon</title><g id="master-card"><path class="cls-1" d="M940,517V254c0-8.83-.09-17.67.07-26.5,0-2.15-.41-2.61-2.57-2.57-8.83.16-17.67.07-26.5.07H448c-6,0-12,.09-18-.05-1.74,0-2.1.32-2.06,2.06.14,6,.05,12,.05,18V517c0,8.5.09,17-.07,25.5,0,2.15.41,2.61,2.57,2.57,8.5-.16,17-.07,25.5-.07H911c8.83,0,17.67-.09,26.5.07,2.15,0,2.61-.41,2.57-2.57C939.91,534,940,525.5,940,517ZM499,336a2.33,2.33,0,0,1,.42-.07,2.33,2.33,0,0,0-.42.07Zm0,.07ZM643.19,452.83h-7.5l-3.37,0,3.37,0Z" transform="translate(-427.93 -224.93)"/><g id="g3115"><g id="g3110"><path id="path2997" class="cls-2" d="M860.36,356.24A110,110,0,1,1,750.33,246a110.14,110.14,0,0,1,110,110.24Z" transform="translate(-427.93 -224.93)"/><path id="path2995" class="cls-3" d="M724.62,356.24A110,110,0,1,1,614.58,246a110.14,110.14,0,0,1,110,110.24Z" transform="translate(-427.93 -224.93)"/><path id="path2999" class="cls-4" d="M682.46,269.46a110.41,110.41,0,0,0,0,173.57,110.41,110.41,0,0,0,0-173.57Z" transform="translate(-427.93 -224.93)"/></g><g id="g3043"><g id="text3045"><path id="path3057" class="cls-2" d="M860.16,414.74V410.8h-1l-1.18,2.71-1.18-2.71h-1v3.93h.73v-3l1.11,2.56h.75l1.11-2.56v3Zm-6.51,0v-3.26H855v-.66h-3.35v.66h1.32v3.26Z" transform="translate(-427.93 -224.93)"/></g></g></g><g id="g3093"><g id="g3081"><path id="path3006" d="M529,521h-6.24V491.88h6.12v3.55s5.38-4.34,8.57-4.29c6.21.11,9.92,5.39,9.92,5.39a11.54,11.54,0,0,1,9.79-5.39,11.26,11.26,0,0,1,11.51,9.18V520.9h-6V502.78s0-5.51-6.49-5.51c-6.73,0-7.35,5.51-7.35,5.51V520.9h-6.24V502.66s-.6-5.75-6.24-5.75c-7.33,0-7.47,5.88-7.47,5.88Z" transform="translate(-427.93 -224.93)"/><path id="path3008" d="M718.91,491.14c-3.19-.05-8.57,4.28-8.57,4.28v-3.54h-6.13V521h6.25l-.12-18.24s.14-5.86,7.47-5.86a6.12,6.12,0,0,1,3.26.84v0l2-5.67A11.21,11.21,0,0,0,718.91,491.14Z" transform="translate(-427.93 -224.93)"/><path id="path3013" d="M806.87,491.14c-3.19-.05-8.57,4.28-8.57,4.28v-3.54h-6.13V521h6.25l-.12-18.24s.14-5.86,7.47-5.86a6.12,6.12,0,0,1,3.26.84v0l2-5.67a11.21,11.21,0,0,0-4.19-.91Z" transform="translate(-427.93 -224.93)"/><path id="path3015" d="M588.89,491c-9.34,0-14.29,8.4-14.31,15.42,0,7.19,5.63,15.49,14.58,15.49,5.22,0,9.51-3.85,9.51-3.85v3h6.15V491.88h-6.17v3.67s-4-4.52-9.74-4.52Zm1.2,5.94c5,0,9.1,4.37,9.1,9.74s-4.08,9.72-9.1,9.72S581,512.08,581,506.7,585.06,497,590.08,497Z" transform="translate(-427.93 -224.93)"/><path id="path3020" d="M768.12,491c-9.34,0-14.29,8.4-14.31,15.42,0,7.19,5.63,15.49,14.58,15.49,5.22,0,9.51-3.85,9.51-3.85v3H784V491.88h-6.17v3.67s-4-4.52-9.74-4.52Zm1.2,5.94c5,0,9.1,4.37,9.1,9.74s-4.08,9.72-9.1,9.72-9.07-4.34-9.07-9.72S764.3,497,769.32,497Z" transform="translate(-427.93 -224.93)"/><path id="path3022" d="M827.14,491c-9.34,0-14.29,8.4-14.31,15.42,0,7.19,5.63,15.49,14.58,15.49,5.22,0,9.51-3.85,9.51-3.85v3H843V480.36h-6.17v15.19s-4-4.52-9.74-4.52Zm1.2,5.94c5,0,9.1,4.37,9.1,9.74s-4.08,9.72-9.1,9.72-9.07-4.34-9.07-9.72S823.31,497,828.33,497Z" transform="translate(-427.93 -224.93)"/><path id="path3024" d="M623.54,522c-6.37,0-12.24-3.92-12.24-3.92l2.69-4.16s5.56,2.57,9.55,2.57c2.59,0,6.93-.84,7-3.43s-7.28-3.55-7.28-3.55-11-.15-11-9.18c0-5.68,5.47-9.3,12.49-9.3,4.05,0,11.63,3.55,11.63,3.55l-3.06,4.77s-5.85-2.34-8.94-2.45c-2.61-.09-5.75,1.15-5.75,3.43,0,6.18,18.24-.48,18.24,12,0,8.19-7.43,9.67-13.34,9.67Z" transform="translate(-427.93 -224.93)"/><path id="path3026" d="M647,483.44v8.47H641.6V498H647v14.65s-.48,9.91,10.17,9.91c2.95,0,8.71-2.18,8.71-2.18l-2.47-6.37a8.33,8.33,0,0,1-4.88,1.89c-4.92-.12-4.79-3.28-4.79-3.28V498h10.15v-6.13H653.78v-8.47Z" transform="translate(-427.93 -224.93)"/><path id="path3034" d="M684,491.38c-10,0-15,8.25-15,15.42,0,7.37,4.56,15.66,15.58,15.66,4.72,0,11.35-4.14,11.35-4.14l-2.85-5s-4.52,3.21-8.5,3.21c-8,0-8.47-7.78-8.47-7.78h21.3S699,491.38,684,491.38Zm-.91,5.72c.24,0,.49,0,.74,0,7.5,0,7.44,7.09,7.44,7.09H676.14S675.78,497.52,683.1,497.11Z" transform="translate(-427.93 -224.93)"/><path id="path3037" d="M747.38,513.28l2.86,5.71a20,20,0,0,1-9.61,2.94c-10.52,0-16.36-7.92-16.36-15.41,0-11.77,9.3-15.24,15.58-15.24a21.69,21.69,0,0,1,10.65,3.29l-3.2,5.71s-1.94-3-7.62-3-8.66,4.89-8.66,9.52c0,5.2,3.48,9.61,8.74,9.61,4.13,0,7.62-3.12,7.62-3.12Z" transform="translate(-427.93 -224.93)"/></g><g id="g3064"><g id="text3066"><path id="path3078" d="M855.93,517a3,3,0,0,0-2.14.86,2.9,2.9,0,0,0,0,4.14,3,3,0,0,0,4.25,0,2.89,2.89,0,0,0,0-4.14A3,3,0,0,0,855.93,517Zm0,5.22a2.28,2.28,0,1,1,0-4.57,2.25,2.25,0,0,1,1.61.66,2.31,2.31,0,0,1,0,3.24A2.25,2.25,0,0,1,855.93,522.25Zm.17-3.66h-1.26v2.73h.58v-1h.27l.83,1h.7l-.89-1A1.09,1.09,0,0,0,857,520a.75.75,0,0,0,.23-.56.78.78,0,0,0-.29-.63A1.26,1.26,0,0,0,856.1,518.58Zm0,.51a.65.65,0,0,1,.37.09.31.31,0,0,1,.14.27.32.32,0,0,1-.14.28.64.64,0,0,1-.37.09h-.67v-.73Z" transform="translate(-427.93 -224.93)"/></g></g></g></g></svg>