<svg id="Layer_1" data-name="Layer 1" xmlns="http://www.w3.org/2000/svg" viewBox="0 0 124.94 220.69"><defs><style>.cls-1{fill:#1bbcb1;}</style></defs><title>mobile-app-icon</title><g id="kngglz.tif"><path class="cls-1" d="M514,257.17a231.31,231.31,0,0,1,36.74,3.37c11,2,17.12,9.77,17.2,21,.08,12.67,0,25.33,0,38q0,64.5,0,129c0,18.52-4.37,23.82-22.63,26.91A192.9,192.9,0,0,1,519,477.86a86.15,86.15,0,0,0-26.92,0,245.65,245.65,0,0,1-32.21-3.17c-9.74-1.51-16.88-10.68-16.83-22,.23-51.59.1-103.18.1-154.77,0-5.82-.1-11.65,0-17.47.19-8.15,3.75-14.7,11.16-18a40.5,40.5,0,0,1,13.55-3.1c9.75-.65,19.48-1.45,29.22-2.19A35.12,35.12,0,0,0,514,257.17Zm-28.9,213.59c5.25,2.22,10.56,1.59,15.9.41H510c5.33,1.18,10.65,1.81,15.9-.41,1.83-1,3.89-.78,5.83-.8,5.85-.06,11.7-1,17.44-1.55,5.53-.55,10.09-5.2,11.71-11.38,1.77-1.41,1.05-3.39,1.06-5.12q.06-84.4,0-168.79c0-1.73.71-3.71-1-5.13-2.37-7.18-7.28-10.63-14.89-11.12-7.39-.48-14.73-1.73-22.1-2.65-.66-1.27-1.86-1.21-3-1.21H490.07c-1.16,0-2.36-.06-3,1.21-7.36.91-14.7,2.13-22.08,2.65-7.55.53-12.71,3.68-14.9,11.11-1.64,1.25-1,3-1,4.63q0,85.41,0,170.83c0,1.56-.66,3.41,1.22,4.5,2.37,6.66,7.08,9.77,14.16,10.25C471.31,468.66,478.17,469.87,485.06,470.76Z" transform="translate(-442.99 -257.17)"/><path class="cls-1" d="M492,477.86a86.15,86.15,0,0,1,26.92,0Z" transform="translate(-442.99 -257.17)"/><path class="cls-1" d="M514,257.17a35.12,35.12,0,0,1-16.89,0Z" transform="translate(-442.99 -257.17)"/><path class="cls-1" d="M523.95,264.22h-36.9c.66-1.27,1.86-1.21,3-1.21h30.85C522.09,263,523.29,262.95,523.95,264.22Z" transform="translate(-442.99 -257.17)"/><path class="cls-1" d="M485.06,470.76l15.9.41C495.62,472.35,490.3,473,485.06,470.76Z" transform="translate(-442.99 -257.17)"/><path class="cls-1" d="M510,471.17l15.9-.41C520.7,473,515.38,472.35,510,471.17Z" transform="translate(-442.99 -257.17)"/><path class="cls-1" d="M553.88,291c.06,19.94.18,39.88.18,59.81q0,42.12-.18,84.25c-1,.58-.92,1.23-.1,1.91.25,1.79-1.66,2-2.29,3.15H459.35c-1.53-.49-2-1.72-2.14-3.15.84-.68.93-1.32-.09-1.91-.06-20.1-.18-40.21-.18-60.31q0-41.87.18-83.75c.13-.08.38-.2.36-.24a5.07,5.07,0,0,0-.32-.7c.41-3.76,3-4.91,6.25-4.91q42.09-.06,84.18,0c3.28,0,5.81,1.2,6.26,4.93-.12.09-.35.23-.34.27A4.79,4.79,0,0,0,553.88,291Zm-7.17,1.12.25.2c-.88-1.77-2.55-1.28-4-1.28q-37.48,0-75,0c-1.41,0-3.09-.51-4,1.28a.52.52,0,0,1-.16.73c-.13.09-.38.22-.37.26a4.54,4.54,0,0,0,.34.69q.1,50.09.18,100.18c0,13-.12,25.91-.19,38.87-.12.1-.36.26-.35.29a6.76,6.76,0,0,0,.47.69c4.63.09,9.26.26,13.89.25q34.56-.08,69.11-.25c.14-.09.4-.2.39-.26a3.59,3.59,0,0,0-.27-.71c-.07-20.93-.19-41.86-.19-62.8,0-25.42.12-50.84.18-76.26C548.24,293.08,547.79,292.53,546.72,292.1Z" transform="translate(-442.99 -257.17)"/><path class="cls-1" d="M498.07,465.75c-6.07-2.67-8.18-6.18-7.16-11.88.88-4.9,4.92-8.09,11.06-7.78,3.93.2,7.75-.72,12,1.13,4.4,1.94,6.23,4.36,6.27,8.61,0,5-2.28,8.5-7.28,9.92A29.88,29.88,0,0,0,498.07,465.75Zm7.47-12.68V453c-1.33,0-2.66,0-4,0-2.12-.07-3.7.71-3.76,3s1.52,3.09,3.63,3.07c3,0,6,0,9-.06a3,3,0,0,0,.12-5.9C508.87,453,507.2,453.07,505.54,453.07Z" transform="translate(-442.99 -257.17)"/><path class="cls-1" d="M491.76,276.06c-1.86-3,0-3.87,2.46-3.91,7.58-.12,15.17-.06,22.76,0,1.36,0,2.71.38,3,2a2.09,2.09,0,0,1-2,2.74c-1-1.22-2.43-.87-3.72-.87C506.74,276,499.25,276,491.76,276.06Z" transform="translate(-442.99 -257.17)"/><path class="cls-1" d="M491.76,276.06c7.49,0,15-.07,22.47-.08,1.29,0,2.7-.35,3.72.87q-11.82.09-23.64.16C493.37,277,492.3,277.21,491.76,276.06Z" transform="translate(-442.99 -257.17)"/><path class="cls-1" d="M529.07,274.73c-.35,1.38-1.05,2.42-2.66,2.32a2.41,2.41,0,0,1,.1-4.81A2.49,2.49,0,0,1,529.07,274.73Z" transform="translate(-442.99 -257.17)"/><path class="cls-1" d="M498.07,465.75a29.88,29.88,0,0,1,14.85,0A76.73,76.73,0,0,1,498.07,465.75Z" transform="translate(-442.99 -257.17)"/><path class="cls-1" d="M457.12,435c1,.59.93,1.23.09,1.91Z" transform="translate(-442.99 -257.17)"/><path class="cls-1" d="M553.78,436.94c-.81-.68-.93-1.33.1-1.91Z" transform="translate(-442.99 -257.17)"/><path class="cls-1" d="M553.88,291a4.79,4.79,0,0,1-.38-.66s.22-.18.34-.27A.92.92,0,0,1,553.88,291Z" transform="translate(-442.99 -257.17)"/><path class="cls-1" d="M457.16,290a5.07,5.07,0,0,1,.32.7s-.24.15-.36.24A.93.93,0,0,1,457.16,290Z" transform="translate(-442.99 -257.17)"/><path class="cls-1" d="M547.11,294l-.39-1.88C547.79,292.53,548.24,293.08,547.11,294Z" transform="translate(-442.99 -257.17)"/><path class="cls-1" d="M547,434a2.35,2.35,0,0,1,.12-1,3.59,3.59,0,0,1,.27.71C547.4,433.8,547.14,433.91,547,434Z" transform="translate(-442.99 -257.17)"/><path class="cls-1" d="M463.88,433a2.35,2.35,0,0,1,.12,1,6.76,6.76,0,0,1-.47-.69S463.76,433.12,463.88,433Z" transform="translate(-442.99 -257.17)"/><path class="cls-1" d="M463.92,293a1.19,1.19,0,0,1,0,1,4.53,4.53,0,0,1-.34-.69S463.79,293.11,463.92,293Z" transform="translate(-442.99 -257.17)"/></g></svg>