<svg id="Layer_1" data-name="Layer 1" xmlns="http://www.w3.org/2000/svg" viewBox="0 0 224 140.03"><defs><style>.cls-1{fill:#1bbcb1;}</style></defs><title>payment-icon</title><path class="cls-1" d="M572,369c17.92-12.54,36.2-24.61,52.57-39.22,5.89-5.25,12.19-8.81,20.29-6.32,2.18.67,2.6-.64,3.46-1.75,4.63-5.95,10.7-8.39,18.23-8.36,33.94.13,67.88.43,101.81-.13,12.93-.21,22.48,3.4,27.64,15.77v77c-4.89,12-14.16,15.83-26.5,14.95-7.79-.56-15.65-.1-23.48-.1-8.07,0-8,0-10,7.64-2.41,9.44-7.09,18-17.54,18.41A51.22,51.22,0,0,0,698.11,452c-6.69,3.06-14.13.25-18.51-5.68-1.17-1.58-1.72-2.09-3.73-1-10.14,5.3-15.7,4.28-23.54-4.11-.93-1-1.43-.81-2.46-.4-14,5.55-28.9,3.75-43.4,5.17-8.94.88-18,.94-26.91,1.62-3,.23-5.53-.25-7.56-2.56v-4c1.67-.9,3-2.09,5.24-2.2,15.45-.81,30.89-1.87,46.34-2.78,4.14-.24,8.28-.15,12.44-.61A37.53,37.53,0,0,0,661,422.22c7-8,15-14.29,25.32-17.59,5.49-1.75,10.53-4.88,15.26-8.3,3.83-2.76,7-6.06,8.65-10.66,1.55-4.31,1-8.21-1.94-11.63-2.76-3.16-6.33-2.21-9.75-1.41-6.52,1.53-12.21,5-18.22,7.78Q661,389.14,641.9,398.09c-2.83,1.32-5.37,1.45-6.82-1.49-1.58-3.2.1-5.38,3.22-6.59.46-.18.88-.48,1.36-.61,3.3-.95,4.38-2.91,4.33-6.5-.24-15.64-.1-31.3-.11-46.94,0-4.45-2.46-6.05-6.64-4.17a17.89,17.89,0,0,0-4.55,3c-16.23,14.62-34.56,26.43-52.09,39.32-2.93,2.16-5.51,2.62-8.59.9Zm80.48,14.39c5.42-2.46,10.13-4.77,15-6.76,10.4-4.27,19.78-11,31.16-12.88,13.76-2.33,23.74,8.2,20.77,21.94-2.06,9.55-8.52,15.53-16.39,20.34-3.1,1.9-6.33,3.57-10.56,5.94,28.69,0,56,0,83.34,0,7,0,11.18-4.29,11.21-11.19.06-14.5-.07-29,.09-43.49,0-3.09-.8-3.88-3.88-3.87q-63.48.16-127,0c-3.23,0-3.89,1.08-3.82,4C652.59,365.75,652.48,374.09,652.48,383.39Zm67.26-47.48h62.9c4.8,0,5.7-1.43,3.48-5.93-2.47-5-6.49-7.88-12.24-7.88q-54.16,0-108.32,0a12.67,12.67,0,0,0-12.2,8.61c-1.22,3.29-1.52,5.36,3.49,5.3C677.8,335.75,698.77,335.91,719.73,335.91Zm-24.16,84.92c-2,0-4,0-6,0-1.45,0-2.46.13-2.64,2-.38,4.13-1.24,8.22-1.52,12.35-.42,6.24,3.07,9.51,9,8.82a9.71,9.71,0,0,0,8.52-9.7c0-1.83,0-3.66.12-5.49C703.7,420.83,703.71,420.83,695.58,420.83Zm25.19,0c-8.33,0-8.34,0-8.8,8.64a38.65,38.65,0,0,0,0,5c.31,4.12,2.44,5.53,6.41,4.1,4.21-1.52,6.55-4.82,8.08-8.91C729.55,421.24,729.33,420.83,720.77,420.83ZM677.94,424c-.22-.93.78-2.36-.65-3s-2.82.21-3.94,1.33c-4,3.95-8,7.92-12.05,11.76-2.42,2.27-1.3,3.83.92,4.9a7.6,7.6,0,0,0,5.31.37C674.14,437.65,677.7,432.54,677.94,424Z" transform="translate(-572 -313.22)"/></svg>