<svg id="Layer_1" data-name="Layer 1" xmlns="http://www.w3.org/2000/svg" viewBox="0 0 384.34 512.29"><defs><style>.cls-1{fill:#333;}</style></defs><title>robot-icon-charcoal</title><path class="cls-1" d="M841.83,447c-4.65,2-8.32,4.38-12.59,5.28-2.2.46-2.1,2.17-2.09,3.9,0,7.17,0,14.33,0,21.5,0,46.85-35.57,83.73-82.5,84.39q-62,.87-124-.16c-40.82-.65-77-36.59-78.79-77.31-.41-9.31-.39-18.65-.36-28,0-2.76-.68-4.17-3.59-4.86-3.66-.88-7-2.71-10.94-5.18,0,2.34,0,3.92,0,5.5,0,19.5,0,39,0,58.5,0,2.66.43,4.34,3.09,5.92A24.72,24.72,0,1,1,493.45,545a24.25,24.25,0,0,1,9.94-28c3-1.91,3.68-4,3.67-7.21q-.15-48.75-.06-97.49c0-22.42,10.48-37.62,31.52-45.2,3.13-1.13,3-3,3-5.33.1-16.16-.09-32.33.41-48.48,2-65.18,54.23-123.09,118.79-133.5,75.93-12.24,145.93,36.48,162.85,108a126.48,126.48,0,0,1,3.66,29.66c-.06,14.83.06,29.67-.08,44.5,0,2.94.74,4.23,3.73,5.21,19.14,6.26,31,22.89,31,43q0,49.75-.06,99.49c0,3.22.54,5.29,3.66,7.19,9.2,5.61,13.18,17.07,10.19,27.49a24.79,24.79,0,0,1-47.14,1.18c-3.61-10.59-.17-22.13,9.1-28.24,3.39-2.23,4.38-4.5,4.34-8.37C841.73,488.52,841.83,468,841.83,447ZM684.21,351v-.27H695.7c17.31,0,34.64,1.28,51.92-.76,19.37-2.28,31.13-12.05,34.11-29.55,5.55-32.64-6-67.62-41.18-85.4-30.27-15.3-62-16.57-94.21-7.29-39.91,11.5-61.43,41.46-60.34,82.79.56,21,9.91,33.7,28.45,38.16A84,84,0,0,0,634.24,351Q659.22,351,684.21,351Zm69.29,58.67a10,10,0,0,0-10-10.22,10.13,10.13,0,0,0-10,9.78,10,10,0,1,0,20,.43Zm-39.43-10.2a10,10,0,0,0-.2,20,10,10,0,1,0,.2-20ZM783,409.61a10,10,0,0,0-10.08-10.13A10,10,0,1,0,783,409.61Z" transform="translate(-492.27 -99.15)"/><path class="cls-1" d="M625.31,572c1.67-.07,3.14-.19,4.61-.19,36.31,0,72.61.09,108.92-.13,5,0,5,1.77,3.84,5.43-3.19,9.75-9.44,17.07-17.8,22.74-23.11,15.7-59.25,15.39-82-.84C633.63,592.46,627,584,625.31,572Z" transform="translate(-492.27 -99.15)"/><path class="cls-1" d="M674.47,156.84a36.27,36.27,0,0,1,0-4.49c.48-3.83-.87-6.19-4.29-8.42-9.08-5.91-12.63-17.41-9.25-27.76a24.69,24.69,0,0,1,47.17.76c3,10.61-.8,21.84-10,27.48-3.17,1.94-4.29,3.92-4,7.49.32,4.47,0,9,.12,13.48.07,2.21-.73,2.89-2.88,2.83-4.49-.13-9-.17-13.48,0-2.61.1-3.61-.76-3.42-3.39S674.47,159.51,674.47,156.84Z" transform="translate(-492.27 -99.15)"/><path class="cls-1" d="M768.17,301.17a19.8,19.8,0,1,1-39.6-.09,20,20,0,0,1,19.64-19.9A19.81,19.81,0,0,1,768.17,301.17Z" transform="translate(-492.27 -99.15)"/><path class="cls-1" d="M640.17,301.22a19.67,19.67,0,1,1-19.81-20.06A19.62,19.62,0,0,1,640.17,301.22Z" transform="translate(-492.27 -99.15)"/></svg>