<svg id="Layer_1" data-name="Layer 1" xmlns="http://www.w3.org/2000/svg" viewBox="0 0 512.14 320.14"><defs><style>.cls-1{fill:#f4f4f5;}.cls-2{fill:#265696;}.cls-3{fill:#d87b16;}.cls-4{fill:#f9fafc;}.cls-5{fill:#fdfbf9;}.cls-6{fill:#f7f9fb;}.cls-7{fill:#275797;}.cls-8{fill:#285797;}.cls-9{fill:#d87b19;}.cls-10{fill:#eff0f2;}</style></defs><title>visa-card-icon</title><g id="visa"><path class="cls-1" d="M428,481V289H940V481Zm71-144.94,0-.07a10.82,10.82,0,0,0,.1,2.45Q514.19,394,529.32,449.58c.72,2.66,2.13,3.2,4.63,3.17,10.33-.14,20.66-.19,31,0,2.83,0,4.07-1.05,5.11-3.55Q596.93,385,624,320.94c1.6-3.76.27-4-2.93-4-9.83.13-19.66.23-29.48,0-3.45-.1-4.84,1.07-6,4.2-10.41,27.52-21,55-31.55,82.42-.55,1.44-.67,3.2-2.6,4.44a204.17,204.17,0,0,0-5.59-23.77c.6-2,0-3.93-.42-5.88-3.14-15.28-6.29-30.56-9.35-45.86C533.76,320.81,529.3,317,517.36,317q-26.19-.06-52.37,0c-1,0-2,0-3,0s-1.63.31-1.78,1.34a1.45,1.45,0,0,0,1.28,1.77c1.13.28,2.24.6,3.36.94,11.62,3.49,23.05,7.44,33.36,14C498.24,335.62,498.31,336.11,499,336.06ZM890.36,452.87c1.83,0,3.67.08,5.49,0,3.63-.19,8.57,1.6,10.53-.76s-.71-6.89-1.46-10.43q-12.93-60.46-26-120.9c-.56-2.6-1.43-3.92-4.52-3.82-8.48.26-17,0-25.48.11-8.66.08-14.83,3.79-18.23,12.1-4.21,10.3-8.83,20.44-13.25,30.66-12.73,29.44-25.39,58.91-38.27,88.29-1.86,4.24-.84,4.94,3.33,4.83,9.32-.24,18.66-.29,28,0,3.92.14,5.61-1.28,6.64-4.85,1.2-4.14,3.17-8,4.42-12.17.89-2.93,2.43-3.79,5.41-3.73,9.82.19,19.65.08,29.47.09,13,0,13,0,15.64,12.85,1.61,7.7,1.61,7.7,9.31,7.7ZM753,315a93.29,93.29,0,0,0-9.49,0c-16.33,1.68-31.34,6.5-42.55,19.34-14.36,16.45-12.32,37.92,4.75,51.43a90.74,90.74,0,0,0,17.55,10.46c5.1,2.43,10.29,4.8,14.55,8.64,6.18,5.57,5.52,13.05-1.54,17.49a25.31,25.31,0,0,1-11.79,3.68,73.45,73.45,0,0,1-37.9-6.8c-3.63-1.74-5.38-2-5.89,2.93-.73,7.1-2.23,14.13-3.57,21.15-.6,3.14.18,4.76,3.48,5.77a120.11,120.11,0,0,0,42.37,5.44c15-.84,29.35-4.23,41.44-13.91C786,423.36,785,394,762.12,378.56a136.2,136.2,0,0,0-12.17-6.84c-5.28-2.82-10.84-5.15-15.61-8.85-7.52-5.83-6.82-13,1.68-17.16a20.94,20.94,0,0,1,5.16-1.77c12.32-2.43,24.2-.55,35.64,4.23,2.86,1.19,3.72.77,4.15-2.24,1.07-7.41,2.23-14.82,3.74-22.15.65-3.17-.71-4-3.24-4.83A82.72,82.72,0,0,0,753,315ZM635.69,452.83h7.5c10.38,0,10.55,0,12.29-10.27,6.86-40.51,13.56-81,20.43-121.55.59-3.51-.62-4.17-3.81-4.1-8.49.18-17,.48-25.48-.09-5.42-.37-6.88,1.6-7.65,6.59-3.31,21.54-7.05,43-10.64,64.5-3.37,20.18-6.67,40.37-10.17,60.53-.64,3.7.52,4.66,4,4.45C626.68,452.64,631.19,452.83,635.69,452.83Z" transform="translate(-427.93 -224.93)"/><path class="cls-2" d="M940,289H428V245c3.07-4.41,5-9.52,9.24-13.23,3.28-2.88,7.49-4,10.76-6.77H911c.44,1.29,1.61.88,2.51,1.07,13.77,2.9,22.24,11.17,25.33,24.94.23,1-.36,2.44,1.16,3Z" transform="translate(-427.93 -224.93)"/><path class="cls-3" d="M428,481H940v36c-1.6.63-1.25,2.26-1.54,3.42-3.33,13.17-11.91,20.68-25,23.5-.9.19-2.07-.19-2.51,1.09H456c-.5-1.47-1.93-1.14-2.95-1.39-12.67-3.13-20.53-11-23.67-23.65-.25-1,.08-2.45-1.38-3Z" transform="translate(-427.93 -224.93)"/><path class="cls-4" d="M940,254c-1.52-.55-.93-2-1.16-3-3.1-13.76-11.56-22-25.33-24.94-.9-.19-2.07.21-2.51-1.07,8.83,0,17.67.09,26.5-.07,2.15,0,2.61.41,2.57,2.57C939.91,236.33,940,245.17,940,254Z" transform="translate(-427.93 -224.93)"/><path class="cls-5" d="M911,545c.44-1.28,1.61-.89,2.51-1.09,13-2.82,21.62-10.33,25-23.5.29-1.16-.06-2.78,1.54-3.42,0,8.5-.09,17,.07,25.5,0,2.15-.41,2.61-2.57,2.57C928.67,544.91,919.83,545,911,545Z" transform="translate(-427.93 -224.93)"/><path class="cls-5" d="M428,517c1.46.51,1.13,1.93,1.38,3,3.14,12.66,11,20.53,23.67,23.65,1,.25,2.45-.08,2.95,1.39-8.5,0-17-.09-25.5.07-2.15,0-2.61-.41-2.57-2.57C428.09,534,428,525.5,428,517Z" transform="translate(-427.93 -224.93)"/><path class="cls-6" d="M448,225c-3.27,2.73-7.48,3.89-10.76,6.77-4.23,3.71-6.17,8.82-9.24,13.23,0-6,.09-12-.05-18,0-1.74.32-2.1,2.06-2.06C436,225.09,442,225,448,225Z" transform="translate(-427.93 -224.93)"/><path class="cls-7" d="M890.36,452.87h-9c-7.7,0-7.7,0-9.31-7.7-2.68-12.84-2.68-12.84-15.64-12.85-9.82,0-19.65.1-29.47-.09-3-.06-4.52.8-5.41,3.73-1.25,4.13-3.22,8-4.42,12.17-1,3.57-2.72,5-6.64,4.85-9.31-.32-18.65-.27-28,0-4.17.11-5.18-.59-3.33-4.83,12.88-29.38,25.53-58.85,38.27-88.29,4.42-10.22,9-20.36,13.25-30.66,3.4-8.31,9.56-12,18.23-12.1,8.49-.07,17,.15,25.48-.11,3.09-.09,4,1.22,4.52,3.82q13,60.45,26,120.9c.76,3.53,3.47,8,1.46,10.43s-6.9.57-10.53.76C894,452.95,892.19,452.87,890.36,452.87Zm-37.77-98.93c-6.31,16.59-12.24,32.23-18.22,47.85-.9,2.35,0,2.94,2.22,2.93,7.82,0,15.63-.07,23.45,0,2.38,0,3.37-.66,2.82-3.18C859.49,386,856.16,370.49,852.59,353.94Z" transform="translate(-427.93 -224.93)"/><path class="cls-8" d="M753,315a82.72,82.72,0,0,1,28.52,4c2.53.79,3.89,1.66,3.24,4.83-1.51,7.33-2.67,14.74-3.74,22.15-.43,3-1.29,3.44-4.15,2.24-11.44-4.77-23.32-6.66-35.64-4.23a20.94,20.94,0,0,0-5.16,1.77c-8.5,4.2-9.2,11.33-1.68,17.16,4.77,3.7,10.33,6,15.61,8.85a136.2,136.2,0,0,1,12.17,6.84C785,394,786,423.36,764.36,440.68c-12.09,9.68-26.42,13.07-41.44,13.91a120.11,120.11,0,0,1-42.37-5.44c-3.3-1-4.08-2.63-3.48-5.77,1.34-7,2.85-14.05,3.57-21.15.51-5,2.26-4.67,5.89-2.93a73.45,73.45,0,0,0,37.9,6.8,25.31,25.31,0,0,0,11.79-3.68c7.06-4.44,7.72-11.92,1.54-17.49-4.26-3.84-9.44-6.21-14.55-8.64a90.74,90.74,0,0,1-17.55-10.46c-17.07-13.51-19.11-35-4.75-51.43,11.21-12.85,26.22-17.67,42.55-19.34A93.29,93.29,0,0,1,753,315Z" transform="translate(-427.93 -224.93)"/><path class="cls-8" d="M545.86,384.21A204.17,204.17,0,0,1,551.44,408c1.93-1.24,2-3,2.6-4.44,10.56-27.46,21.15-54.91,31.55-82.42,1.18-3.13,2.58-4.3,6-4.2,9.82.28,19.65.18,29.48,0,3.21,0,4.53.21,2.93,4Q596.89,385,570,449.17c-1,2.5-2.28,3.59-5.11,3.55-10.32-.15-20.65-.1-31,0-2.5,0-3.91-.5-4.63-3.17Q514.26,394,499.06,338.44A10.83,10.83,0,0,1,499,336c1.31-.34,2.22.55,3.17,1.14a122.41,122.41,0,0,1,29.25,25.23C537.09,369.09,540.89,377,545.86,384.21Z" transform="translate(-427.93 -224.93)"/><path class="cls-8" d="M635.69,452.83c-4.5,0-9-.2-13.49.06-3.52.2-4.68-.75-4-4.45,3.5-20.16,6.8-40.35,10.17-60.53,3.59-21.49,7.33-43,10.64-64.5.77-5,2.23-7,7.65-6.59,8.46.57,17,.27,25.48.09,3.19-.07,4.4.59,3.81,4.1-6.87,40.51-13.57,81-20.43,121.55-1.74,10.3-1.91,10.27-12.29,10.27Z" transform="translate(-427.93 -224.93)"/><path class="cls-9" d="M545.86,384.21c-5-7.19-8.77-15.12-14.48-21.86a122.41,122.41,0,0,0-29.25-25.23c-1-.59-1.86-1.48-3.17-1.14l0,.07c.14-.65-.28-.84-.79-1-10.31-6.6-21.74-10.54-33.36-14-1.11-.33-2.23-.66-3.36-.94a1.45,1.45,0,0,1-1.28-1.77c.14-1,.9-1.3,1.78-1.34s2,0,3,0q26.19,0,52.37,0c11.94,0,16.4,3.81,18.73,15.47,3.06,15.3,6.21,30.58,9.35,45.86C545.84,380.28,546.46,382.2,545.86,384.21Z" transform="translate(-427.93 -224.93)"/><path class="cls-8" d="M498.22,335.11c.51.11.93.3.79,1C498.31,336.11,498.24,335.62,498.22,335.11Z" transform="translate(-427.93 -224.93)"/><path class="cls-10" d="M852.59,353.94c3.57,16.55,6.9,32.09,10.28,47.61.55,2.52-.45,3.21-2.82,3.18-7.82-.09-15.63-.06-23.45,0-2.18,0-3.12-.58-2.22-2.93C840.36,386.17,846.29,370.53,852.59,353.94Z" transform="translate(-427.93 -224.93)"/></g></svg>